<svg width="18" height="18" viewBox="0 0 18 18" fill="none" xmlns="http://www.w3.org/2000/svg">
<path d="M4.41705 12.4288L5.59268 11.2549L6.79357 10.0558L10.0702 6.7841L11.2695 5.58653L12.4451 4.41266L12.3931 4.37368C11.3068 3.58229 9.97666 3.19684 8.63481 3.28455C7.29295 3.37226 6.02453 3.92758 5.05079 4.85362L4.88164 5.02252C3.86537 6.07606 3.29044 7.47737 3.27434 8.94003L6.15141 6.06954C6.60068 5.63243 7.14439 5.30407 7.7407 5.1097C8.337 4.91534 8.97002 4.86015 9.59104 4.94839L4.95588 9.57665L3.60881 10.9217L2.35664 12.172C1.78349 10.9728 1.5459 9.64106 1.66905 8.31796C1.79221 6.99486 2.27152 5.72967 3.0562 4.65645C3.25483 4.38572 3.47114 4.12837 3.70372 3.88609L3.88282 3.70726C5.13103 2.49885 6.76732 1.77062 8.50179 1.65158C10.2363 1.53254 11.957 2.03038 13.359 3.05689C13.4455 3.11956 13.5305 3.18375 13.6131 3.25024L14.7773 2.08783C14.6318 1.96606 14.4813 1.84862 14.3257 1.73551C14.0317 1.52059 13.725 1.32357 13.4072 1.14551C12.3189 0.535523 11.1151 0.159127 9.8727 0.0404181C8.56905 -0.0832392 7.25405 0.0776567 6.01887 0.511953C4.78369 0.94625 3.65787 1.64356 2.71944 2.55554C2.66662 2.60522 2.61611 2.65719 2.56636 2.70839C1.2951 4.00906 0.446776 5.6627 0.132444 7.45282C-0.117598 8.89666 -0.0125329 10.3795 0.438597 11.7739C0.792333 12.863 1.35112 13.8746 2.08493 14.7544L3.24908 13.592L4.41705 12.4288Z" fill="#C11C23"/>
<path d="M8.40754 13.0485L13.0427 8.42034L14.3898 7.07529L15.6419 5.825L16.8574 4.6114C16.5871 4.12423 16.2714 3.66365 15.9144 3.23578L14.748 4.402L13.5815 5.56822L12.4059 6.74209L11.205 7.94117L7.92841 11.2129L6.72906 12.4104L5.5542 13.5843L4.38546 14.7497L3.22131 15.9129C3.36674 16.0344 3.51828 16.1521 3.67365 16.2652C3.96754 16.4803 4.27426 16.6773 4.59211 16.8552C5.68048 17.4649 6.88434 17.841 8.12665 17.9595C9.43115 18.0833 10.747 17.9222 11.9829 17.4874C13.2188 17.0526 14.3451 16.3544 15.2837 15.4414C15.3358 15.3917 15.3871 15.3397 15.4368 15.2885C16.5846 14.1142 17.389 12.6489 17.7632 11.0512C18.1374 9.45343 18.0671 7.78394 17.56 6.22317L16.219 7.56593L14.7219 9.06077L11.936 11.8426L11.8479 11.9312L9.04587 14.7283C10.5009 14.7151 11.8963 14.1498 12.9493 13.1471C13.0067 13.0921 13.0634 13.0356 13.1192 12.9782L16.3239 9.77839C16.1883 11.0677 15.7129 12.2981 14.9462 13.3443C14.7476 13.615 14.5313 13.8724 14.2987 14.1147L14.1158 14.2912C13.0344 15.3354 11.6592 16.0245 10.1745 16.2661C8.68975 16.5077 7.16655 16.2904 5.80907 15.6431L7.06124 14.3928L8.40754 13.0485Z" fill="#24354B"/>
</svg>
