<svg width="128" height="128" viewBox="0 0 128 128" fill="none" xmlns="http://www.w3.org/2000/svg">
<rect width="128" height="128" rx="8" fill="#E5EFEE"/>
<g clip-path="url(#clip0_1102_3)">
<path d="M83.1719 27.0156L74.3594 35.8281L92.1719 53.6406L100.984 44.8281C104.891 40.9219 104.891 34.5938 100.984 30.6875L97.3281 27.0156C93.4219 23.1094 87.0938 23.1094 83.1875 27.0156H83.1719ZM70.8281 39.3594L31.0156 79.1875C29.9688 80.2344 29.2031 81.5469 28.7969 82.9688L24.1406 99.2188C23.7656 100.531 24.1406 101.938 25.0938 102.906C26.0469 103.875 27.4688 104.234 28.7813 103.859L45.0313 99.2188C46.4688 98.8125 47.7656 98.0469 48.8125 97L88.6406 57.1719L70.8281 39.3594Z" fill="#00635A"/>
<path opacity="0.4" d="M62.9688 40.1562L55.9062 33.1094C55.8594 33.1562 55.8125 33.2188 55.7656 33.2656L45.7656 43.2656C44.7969 44.2344 43.2031 44.2344 42.2344 43.2656C41.2656 42.2969 41.2656 40.7031 42.2344 39.7344L52.2344 29.7344C52.2812 29.6875 52.3437 29.6406 52.3906 29.5938L49.2969 26.5C46.375 23.5781 41.625 23.5781 38.7031 26.5L26.5 38.7031C23.5781 41.625 23.5781 46.375 26.5 49.3125L40.1562 62.9688L62.9688 40.1562ZM87.8438 65.0312L65.0312 87.8438L78.7031 101.5C81.625 104.422 86.375 104.422 89.3125 101.5L101.5 89.2969C104.422 86.375 104.422 81.625 101.5 78.6875L98.4062 75.5938C98.3594 75.6406 98.3125 75.7031 98.2656 75.75L88.2656 85.75C87.2969 86.7188 85.7031 86.7188 84.7344 85.75C83.7656 84.7812 83.7656 83.1875 84.7344 82.2188L94.7344 72.2188C94.7812 72.1719 94.8438 72.125 94.8906 72.0781L87.8438 65.0312Z" fill="#00635A"/>
</g>
<defs>
<clipPath id="clip0_1102_3">
<rect width="80" height="80" fill="white" transform="translate(24 24)"/>
</clipPath>
</defs>
</svg>
