<svg width="128" height="128" viewBox="0 0 128 128" fill="none" xmlns="http://www.w3.org/2000/svg">
<rect width="128" height="128" rx="8" fill="#80B1AC"/>
<g clip-path="url(#clip0_1102_2)">
<path d="M65.5937 34.9844L69.2812 42.4531L77.4531 43.625C78.9062 43.8438 79.5156 45.6406 78.4531 46.7188L72.5156 52.4375L73.9219 60.5781C74.1406 62.0313 72.6406 63.1563 71.2969 62.4844L64.0156 58.6719L56.6875 62.5469C55.3437 63.2188 53.8281 62.0938 54.0625 60.6406L55.4687 52.5L49.5312 46.7188C48.4687 45.6563 49.0781 43.8594 50.5312 43.625L58.7031 42.4531L62.4062 34.9844C63.0781 33.6406 64.9844 33.6875 65.5937 34.9844Z" fill="white"/>
<path opacity="0.4" d="M49 79C49 76.2344 51.2344 74 54 74H74C76.7656 74 79 76.2344 79 79V109C79 111.766 76.7656 114 74 114H54C51.2344 114 49 111.766 49 109V79ZM14 89C14 86.2344 16.2344 84 19 84H39C41.7656 84 44 86.2344 44 89V109C44 111.766 41.7656 114 39 114H19C16.2344 114 14 111.766 14 109V89ZM89 94H109C111.766 94 114 96.2344 114 99V109C114 111.766 111.766 114 109 114H89C86.2344 114 84 111.766 84 109V99C84 96.2344 86.2344 94 89 94Z" fill="white"/>
</g>
<defs>
<clipPath id="clip0_1102_2">
<rect width="100" height="80" fill="white" transform="translate(14 34)"/>
</clipPath>
</defs>
</svg>
