<svg width="48" height="48" viewBox="0 0 48 48" fill="none" xmlns="http://www.w3.org/2000/svg">
<circle cx="24" cy="24" r="24" fill="#FE970C"/>
<g clip-path="url(#clip0_1105_6)">
<path d="M28.3937 8.6125C27 8.2125 25.525 8 24 8C15.1625 8 8 15.1625 8 24C8 32.8375 15.1625 40 24 40C32.8375 40 40 32.8375 40 24C40 22.475 39.7875 21 39.3875 19.6062L37.9625 21.1938C37.8937 21.2688 37.8313 21.3375 37.7563 21.4062C37.9125 22.25 37.9937 23.1125 37.9937 24C37.9937 31.7313 31.725 38 23.9937 38C16.2625 38 10 31.7313 10 24C10 16.2688 16.2688 10 24 10C24.8875 10 25.7563 10.0812 26.5938 10.2375C26.6625 10.1688 26.7312 10.1 26.8062 10.0312L28.3937 8.6125ZM25.1625 14.0687C24.7812 14.025 24.3937 14 24 14C18.475 14 14 18.475 14 24C14 29.525 18.475 34 24 34C29.525 34 34 29.525 34 24C34 23.6062 33.975 23.2188 33.9312 22.8375C33.7625 22.825 33.5938 22.8062 33.425 22.7812L31.8625 22.5188C31.95 23 32 23.4937 32 24C32 28.4188 28.4188 32 24 32C19.5813 32 16 28.4188 16 24C16 19.5813 19.5813 16 24 16C24.5063 16 25 16.05 25.4813 16.1375L25.2188 14.575C25.1875 14.4062 25.1688 14.2375 25.1625 14.0687ZM29.3438 20.075L33.7437 20.8062C34.7625 20.975 35.7938 20.6125 36.4813 19.8375L39.225 16.75C39.9563 15.9313 39.5875 14.6312 38.5375 14.3187L34.8062 13.2L33.6812 9.4625C33.3687 8.4125 32.0688 8.04375 31.25 8.775L28.1625 11.5187C27.3938 12.2063 27.025 13.2375 27.1938 14.2562L27.925 18.6562L23.2875 23.2937C22.9 23.6812 22.9 24.3187 23.2875 24.7062C23.675 25.0938 24.3125 25.0938 24.7 24.7062L29.3375 20.0688L29.3438 20.075ZM31.0812 18.3375L34.2875 15.1312L37.2125 16.0063L34.9875 18.5063C34.7562 18.7625 34.4125 18.8875 34.075 18.8313L31.0812 18.3313V18.3375ZM32.8687 13.7188L29.6625 16.925L29.1625 13.9313C29.1063 13.5938 29.225 13.25 29.4875 13.0188L31.9875 10.7938L32.8625 13.7188H32.8687Z" fill="white"/>
</g>
<defs>
<clipPath id="clip0_1105_6">
<rect width="32" height="32" fill="white" transform="translate(8 8)"/>
</clipPath>
</defs>
</svg>
