<svg width="48" height="48" viewBox="0 0 48 48" fill="none" xmlns="http://www.w3.org/2000/svg">
<circle cx="24" cy="24" r="24" fill="#FE970C"/>
<g clip-path="url(#clip0_1105_5)">
<path d="M35.9055 10.2242C36.9883 10.0109 38 10.8367 38 11.9414V19.1875H37.9891C37.9945 19.2586 38 19.3352 38 19.4063C38 20.9758 36.4305 22.25 34.5 22.25C32.5695 22.25 31 20.9758 31 19.4063C31 17.8367 32.5695 16.5625 34.5 16.5625C35.1398 16.5625 35.7359 16.6992 36.25 16.9453V11.9414L29.25 13.3414V20.9375H29.2391C29.2445 21.0086 29.25 21.0852 29.25 21.1563C29.25 22.7258 27.6805 24 25.75 24C23.8195 24 22.25 22.7258 22.25 21.1563C22.25 19.5867 23.8195 18.3125 25.75 18.3125C26.3898 18.3125 26.9859 18.4492 27.5 18.6953V13.3414C27.5 12.5047 28.0906 11.7883 28.9055 11.6242L35.9055 10.2242ZM36.25 19.4063C36.25 19.2367 36.168 18.9961 35.8727 18.7555C35.5719 18.5094 35.0906 18.3125 34.5 18.3125C33.9094 18.3125 33.4336 18.5094 33.1273 18.7555C32.8266 18.9961 32.75 19.2367 32.75 19.4063C32.75 19.5758 32.832 19.8164 33.1273 20.057C33.4281 20.3031 33.9094 20.5 34.5 20.5C35.0906 20.5 35.5664 20.3031 35.8727 20.057C36.1734 19.8164 36.25 19.5758 36.25 19.4063ZM27.5 21.1563C27.5 20.9867 27.418 20.7461 27.1227 20.5055C26.8219 20.2594 26.3406 20.0625 25.75 20.0625C25.1594 20.0625 24.6836 20.2594 24.3773 20.5055C24.0766 20.7461 24 20.9867 24 21.1563C24 21.3258 24.082 21.5664 24.3773 21.807C24.6781 22.0531 25.1594 22.25 25.75 22.25C26.3406 22.25 26.8164 22.0531 27.1227 21.807C27.4234 21.5664 27.5 21.3258 27.5 21.1563ZM15.7641 12.9859L15.4359 12.6578C14.9437 12.1656 14.2438 11.9414 13.5547 12.0563C12.5156 12.2313 11.75 13.1281 11.75 14.1836V14.3422C11.75 14.993 12.018 15.6109 12.4937 16.0594L17 20.2648L21.5062 16.0594C21.982 15.6164 22.25 14.993 22.25 14.3422V14.1836C22.25 13.1281 21.4898 12.2258 20.4453 12.0563C19.7563 11.9414 19.0563 12.1656 18.5641 12.6578L18.2359 12.9859L17 14.2273L15.7641 12.9859ZM13.2648 10.3281C14.5117 10.1258 15.7805 10.5305 16.6719 11.4219L17 11.75L17.3281 11.4219C18.2195 10.5305 19.4883 10.1258 20.7352 10.3281C22.6164 10.6453 24 12.275 24 14.1836V14.3422C24 15.4797 23.5297 16.5625 22.6984 17.3391L17.7547 21.9492C17.5469 22.1406 17.2789 22.25 17 22.25C16.7211 22.25 16.4477 22.1406 16.2453 21.9492L11.3016 17.3391C10.4703 16.5625 10 15.4797 10 14.3477V14.1836C10 12.275 11.3836 10.6453 13.2648 10.3281ZM13.9375 27.5H12.625C12.1437 27.5 11.75 27.8938 11.75 28.375V35.375C11.75 35.8563 12.1437 36.25 12.625 36.25H23.125C23.6062 36.25 24 35.8563 24 35.375V28.375C24 27.8938 23.6062 27.5 23.125 27.5H21.8125C21.1508 27.5 20.5437 27.1281 20.2484 26.532L19.8547 25.75H15.8953L15.5016 26.532C15.2062 27.1281 14.5992 27.5 13.9375 27.5ZM21.4187 24.968L21.8125 25.75H23.125C24.5742 25.75 25.75 26.9258 25.75 28.375V35.375C25.75 36.8242 24.5742 38 23.125 38H12.625C11.1758 38 10 36.8242 10 35.375V28.375C10 26.9258 11.1758 25.75 12.625 25.75H13.9375L14.3312 24.968C14.6266 24.3773 15.2336 24 15.8953 24H19.8547C20.5164 24 21.1234 24.3719 21.4187 24.968ZM16.125 31.4375C16.125 31.9016 16.3094 32.3467 16.6376 32.6749C16.9658 33.0031 17.4109 33.1875 17.875 33.1875C18.3391 33.1875 18.7842 33.0031 19.1124 32.6749C19.4406 32.3467 19.625 31.9016 19.625 31.4375C19.625 30.9734 19.4406 30.5283 19.1124 30.2001C18.7842 29.8719 18.3391 29.6875 17.875 29.6875C17.4109 29.6875 16.9658 29.8719 16.6376 30.2001C16.3094 30.5283 16.125 30.9734 16.125 31.4375ZM17.875 34.9375C16.9467 34.9375 16.0565 34.5688 15.4001 33.9124C14.7437 33.256 14.375 32.3658 14.375 31.4375C14.375 30.5092 14.7437 29.619 15.4001 28.9626C16.0565 28.3062 16.9467 27.9375 17.875 27.9375C18.8033 27.9375 19.6935 28.3062 20.3499 28.9626C21.0063 29.619 21.375 30.5092 21.375 31.4375C21.375 32.3658 21.0063 33.256 20.3499 33.9124C19.6935 34.5688 18.8033 34.9375 17.875 34.9375ZM35.993 25.493L31.3609 30.125H36.25C36.6055 30.125 36.9227 30.3383 37.0594 30.6664C37.1961 30.9945 37.1195 31.3719 36.868 31.618L30.743 37.743C30.4039 38.082 29.8461 38.082 29.507 37.743C29.168 37.4039 29.168 36.8461 29.507 36.507L34.1391 31.875H29.25C28.8945 31.875 28.5773 31.6617 28.4406 31.3336C28.3039 31.0055 28.3805 30.6281 28.632 30.382L34.757 24.257C35.0961 23.918 35.6539 23.918 35.993 24.257C36.332 24.5961 36.332 25.1539 35.993 25.493Z" fill="white"/>
</g>
<defs>
<clipPath id="clip0_1105_5">
<rect width="28" height="28" fill="white" transform="translate(10 10)"/>
</clipPath>
</defs>
</svg>
