<svg width="48" height="48" viewBox="0 0 48 48" fill="none" xmlns="http://www.w3.org/2000/svg">
<circle cx="24" cy="24" r="24" fill="#FE970C"/>
<g clip-path="url(#clip0_1105_4)">
<path d="M27.8687 34.4188C26.525 37.1 25.0438 38 24 38C23.5063 38 22.9187 37.8 22.2937 37.3125L21.8625 38.475C21.6813 38.9625 21.3812 39.3937 20.9937 39.7188C21.9688 39.9062 22.9688 40 24 40C32.8375 40 40 32.8375 40 24C40 15.1625 32.8375 8 24 8C15.1625 8 8 15.1625 8 24C8 25.025 8.09375 26.0312 8.28125 27.0063C8.6125 26.6187 9.0375 26.3188 9.525 26.1375L10.125 25.9188C10.0375 25.2938 9.99375 24.6562 9.99375 24.0063C9.99375 22.6188 10.1938 21.275 10.575 20.0063H16.25C16.0938 21.2063 16.0063 22.4625 16 23.7563L18.0125 23.0125C18.0437 21.9688 18.1313 20.9625 18.2688 20.0063H29.7313C29.9062 21.2688 30 22.6125 30 24.0063C30 25.4 29.9062 26.7437 29.7313 28.0063H25.725L24.9875 30.0063H29.375C29.0063 31.6938 28.4875 33.1875 27.8687 34.425V34.4188ZM20.1313 13.5813C21.475 10.9 22.9563 10 24 10C25.0438 10 26.525 10.9 27.8687 13.5813C28.4875 14.8188 29.0063 16.3125 29.375 18H18.625C18.9937 16.3125 19.5125 14.8188 20.1313 13.5813ZM32 24C32 22.6187 31.9125 21.2812 31.75 20H37.425C37.8 21.2688 38.0063 22.6125 38.0063 24C38.0063 25.3875 37.8062 26.7313 37.425 28H31.75C31.9125 26.7188 32 25.3813 32 24ZM31.4188 18C30.8188 15.025 29.7812 12.5 28.4688 10.7313C32.0812 11.95 35.0312 14.5938 36.65 18H31.4188ZM11.35 18C12.9688 14.5938 15.9187 11.9437 19.5312 10.7313C18.2188 12.5 17.1875 15.0312 16.5813 18H11.35ZM31.4188 30H36.6562C35.0375 33.4062 32.0875 36.0562 28.475 37.2687C29.7875 35.5 30.825 32.9688 31.425 30H31.4188ZM24.9375 24.3438C25.075 23.975 24.9812 23.5687 24.7062 23.2937C24.4312 23.0188 24.0187 22.925 23.6562 23.0625L10.2188 28.0125C9.83125 28.1562 9.575 28.5187 9.5625 28.9312C9.55 29.3438 9.8 29.7188 10.1813 29.875L14.8063 31.7812L8.29375 38.2938C7.90625 38.6813 7.90625 39.3187 8.29375 39.7062C8.68125 40.0938 9.31875 40.0938 9.70625 39.7062L16.2188 33.1938L18.125 37.8188C18.2812 38.2 18.6562 38.4438 19.0688 38.4375C19.4813 38.4312 19.8438 38.1688 19.9875 37.7812L24.9375 24.3438ZM16.9563 30.5L13.3187 29L22.3125 25.6875L19 34.6812L17.5 31.0438C17.4 30.8 17.2 30.6 16.9563 30.5Z" fill="white"/>
</g>
<defs>
<clipPath id="clip0_1105_4">
<rect width="32" height="32" fill="white" transform="translate(8 8)"/>
</clipPath>
</defs>
</svg>
